<?xml version="1.0" encoding="utf-8"?>
<!-- Generator: Adobe Illustrator 19.0.0, SVG Export Plug-In . SVG Version: 6.00 Build 0)  -->
<svg version="1.1" id="Layer_1" xmlns="http://www.w3.org/2000/svg" xmlns:xlink="http://www.w3.org/1999/xlink" width="30" height="30" 
	 viewBox="0 0 96 96" style="enable-background:new 0 0 96 96;" xml:space="preserve">
<g id="XMLID_1_">
	<path id="XMLID_5_" d="M75.5,73.2L58.4,56c3.2-3.8,5.2-8.6,5.2-14c0-11.9-9.7-21.5-21.5-21.5c-5.8,0-11.2,2.2-15.2,6.3
		c-4.1,4.1-6.3,9.5-6.3,15.2c0,11.9,9.7,21.5,21.5,21.5c5.3,0,10.2-2,14-5.2l17.1,17.1L75.5,73.2z M42,60.2
		c-10,0-18.2-8.2-18.2-18.2c0-4.9,1.9-9.4,5.3-12.9c3.4-3.4,8-5.3,12.9-5.3c10,0,18.2,8.2,18.2,18.2C60.2,52.1,52.1,60.2,42,60.2z"
		/>
</g>
</svg>
